<svg xmlns="http://www.w3.org/2000/svg" version="1.1" xmlnsXlink="http://www.w3.org/1999/xlink" xmlnsSvgjs="http://svgjs.dev/svgjs" viewBox="0 0 2400 800" opacity="0.24"><g fill="hsl(180, 69%, 30%)" transform="matrix(1,0,0,1,0,-146.05648803710938)"><path d="M 0 323.11541949823453 Q 900 523.1411047076596 1200 321.60250994037574 Q 2100 557.8509055394488 2400 339.03144335170373 L 2400 800 L 0 800 L 0 307.11301940935584 Z" transform="matrix(1,0,0,1,0,35)" opacity="0.05"></path><path d="M 0 323.11541949823453 Q 900 523.1411047076596 1200 321.60250994037574 Q 2100 557.8509055394488 2400 339.03144335170373 L 2400 800 L 0 800 L 0 307.11301940935584 Z" transform="matrix(1,0,0,1,0,70)" opacity="0.16"></path><path d="M 0 323.11541949823453 Q 900 523.1411047076596 1200 321.60250994037574 Q 2100 557.8509055394488 2400 339.03144335170373 L 2400 800 L 0 800 L 0 307.11301940935584 Z" transform="matrix(1,0,0,1,0,105)" opacity="0.26"></path><path d="M 0 323.11541949823453 Q 900 523.1411047076596 1200 321.60250994037574 Q 2100 557.8509055394488 2400 339.03144335170373 L 2400 800 L 0 800 L 0 307.11301940935584 Z" transform="matrix(1,0,0,1,0,140)" opacity="0.37"></path><path d="M 0 323.11541949823453 Q 900 523.1411047076596 1200 321.60250994037574 Q 2100 557.8509055394488 2400 339.03144335170373 L 2400 800 L 0 800 L 0 307.11301940935584 Z" transform="matrix(1,0,0,1,0,175)" opacity="0.47"></path><path d="M 0 323.11541949823453 Q 900 523.1411047076596 1200 321.60250994037574 Q 2100 557.8509055394488 2400 339.03144335170373 L 2400 800 L 0 800 L 0 307.11301940935584 Z" transform="matrix(1,0,0,1,0,210)" opacity="0.58"></path><path d="M 0 323.11541949823453 Q 900 523.1411047076596 1200 321.60250994037574 Q 2100 557.8509055394488 2400 339.03144335170373 L 2400 800 L 0 800 L 0 307.11301940935584 Z" transform="matrix(1,0,0,1,0,245)" opacity="0.68"></path><path d="M 0 323.11541949823453 Q 900 523.1411047076596 1200 321.60250994037574 Q 2100 557.8509055394488 2400 339.03144335170373 L 2400 800 L 0 800 L 0 307.11301940935584 Z" transform="matrix(1,0,0,1,0,280)" opacity="0.79"></path><path d="M 0 323.11541949823453 Q 900 523.1411047076596 1200 321.60250994037574 Q 2100 557.8509055394488 2400 339.03144335170373 L 2400 800 L 0 800 L 0 307.11301940935584 Z" transform="matrix(1,0,0,1,0,315)" opacity="0.89"></path><path d="M 0 323.11541949823453 Q 900 523.1411047076596 1200 321.60250994037574 Q 2100 557.8509055394488 2400 339.03144335170373 L 2400 800 L 0 800 L 0 307.11301940935584 Z" transform="matrix(1,0,0,1,0,350)" opacity="1.00"></path></g></svg>